{
  "accessors": [
    {
      "bufferView": 0,
      "componentType": 5126,
      "count": 20421,
      "max": [
        23.63205909729004,
        9.279918670654297,
        21.215911865234375
      ],
      "min": [
        -29.054000854492188,
        -6.949379920959473,
        -31.6117000579834
      ],
      "type": "VEC3"
    },
    {
      "bufferView": 1,
      "componentType": 5125,
      "count": 45179,
      "type": "SCALAR"
    },
    {
      "bufferView": 2,
      "componentType": 5126,
      "count": 20421,
      "type": "VEC3"
    },
    {
      "bufferView": 3,
      "componentType": 5126,
      "count": 20421,
      "type": "VEC4"
    },
    {
      "bufferView": 4,
      "componentType": 5126,
      "count": 20421,
      "type": "VEC2"
    },
    {
      "bufferView": 5,
      "componentType": 5126,
      "count": 20421,
      "max": [
        23.63205909729004,
        9.279918670654297,
        21.215911865234375
      ],
      "min": [
        -29.054000854492188,
        -6.949379920959473,
        -31.6117000579834
      ],
      "type": "VEC3"
    },
    {
      "bufferView": 6,
      "componentType": 5123,
      "count": 801,
      "type": "SCALAR"
    },
    {
      "bufferView": 7,
      "componentType": 5126,
      "count": 20421,
      "type": "VEC3"
    },
    {
      "bufferView": 8,
      "componentType": 5126,
      "count": 20421,
      "type": "VEC4"
    },
    {
      "bufferView": 9,
      "componentType": 5126,
      "count": 20421,
      "type": "VEC2"
    }
  ],
  "asset": {
    "version": "2.0"
  },
  "bufferViews": [
    {
      "buffer": 0,
      "byteLength": 245052,
      "target": 34962
    },
    {
      "buffer": 1,
      "byteLength": 180716,
      "target": 34963
    },
    {
      "buffer": 2,
      "byteLength": 245052,
      "target": 34962
    },
    {
      "buffer": 3,
      "byteLength": 326736,
      "target": 34962
    },
    {
      "buffer": 4,
      "byteLength": 163368,
      "target": 34962
    },
    {
      "buffer": 0,
      "byteLength": 245052,
      "target": 34962
    },
    {
      "buffer": 5,
      "byteLength": 1602,
      "target": 34963
    },
    {
      "buffer": 2,
      "byteLength": 245052,
      "target": 34962
    },
    {
      "buffer": 3,
      "byteLength": 326736,
      "target": 34962
    },
    {
      "buffer": 4,
      "byteLength": 163368,
      "target": 34962
    }
  ],
  "buffers": [
    {
      "byteLength": 245052,
      "uri": "data:application/octet-stream;base64,"
    },
    {
      "byteLength": 180716,
      "uri": "data:application/octet-stream;base64,"
    },
    {
      "byteLength": 245052,
      "uri": "data:application/octet-stream;base64,"
    },
    {
      "byteLength": 326736,
      "uri": "data:application/octet-stream;base64,"
    },
    {
      "byteLength": 163368,
      "uri": "data:application/octet-stream;base64,"
    },
    {
      "byteLength": 1602,
      "uri": "data:application/octet-stream;base64,"
    }
  ],
  "materials": [
    {
      "doubleSided": true,
      "pbrMetallicRoughness": {
        "baseColorFactor": [
          0.800000011920929,
          0.800000011920929,
          0.800000011920929,
          1.0
        ]
      }
    }
  ],
  "meshes": [
    {
      "primitives": [
        {
          "attributes": {
            "NORMAL": 2,
            "POSITION": 0,
            "TANGENT": 3,
            "TEXCOORD_0": 4
          },
          "indices": 1,
          "material": 0,
          "mode": 5
        },
        {
          "attributes": {
            "NORMAL": 7,
            "POSITION": 5,
            "TANGENT": 8,
            "TEXCOORD_0": 9
          },
          "indices": 6,
          "material": 0,
          "mode": 4
        }
      ]
    }
  ],
  "nodes": [
    {
      "mesh": 0,
      "name": "_gltfNode_0"
    },
    {
      "children": [
        0
      ],
      "name": "GLTF Converted Scene",
      "rotation": [
        -0.7071067811865475,
        0.0,
        0.0,
        0.7071067811865476
      ],
      "scale": [
        1.0,
        1.0,
        1.0
      ],
      "translation": [
        0.0,
        0.0,
        0.0
      ]
    }
  ],
  "scene": 0,
  "scenes": [
    {
      "nodes": [
        1
      ]
    }
  ]
}
